<svg width="512" height="512" viewBox="0 0 512 512" fill="none" xmlns="http://www.w3.org/2000/svg">
<rect width="512" height="512" fill="#171717"/>
<path d="M239.357 99.5004C232.101 100.173 231.558 100.262 223.342 101.831C206.66 105.058 191.021 111.647 178.717 120.656C167.79 128.678 163.954 132.398 156.071 142.528C154.445 144.59 149.982 152.209 147.73 156.691C139.889 172.423 136.178 192.368 137.596 211.148C138.096 217.781 139.305 225.221 140.557 229.3C140.974 230.644 141.432 232.348 141.558 233.11C142.517 237.592 148.314 249.29 152.985 256.192C157.781 263.274 168.75 273.762 178.3 280.35C185.932 285.639 202.865 295.275 212.916 300.116C214.084 300.654 216.211 301.729 217.712 302.491C220.965 304.105 235.437 311.276 242.736 314.907C252.954 319.926 270.47 329.294 273.389 331.266C279.603 335.434 282.731 340.454 282.231 345.608C281.647 351.57 276.434 357.351 270.261 358.786C259.96 361.206 238.273 360.22 225.011 356.814C217.67 354.886 207.036 351.39 203.24 349.597C202.49 349.239 201.238 348.701 200.529 348.343C186.6 341.844 178.217 337.182 169 330.728C166.414 328.935 164.037 327.456 163.703 327.456C162.994 327.456 160.367 331.356 149.648 348.522C140.014 363.985 137.387 368.108 136.428 369.274C135.802 370.036 135.844 370.17 136.678 370.842C137.137 371.291 138.722 372.59 140.14 373.8C150.775 382.899 164.329 391.504 177.466 397.466C187.142 401.903 203.824 407.102 215.21 409.253C237.064 413.422 260.502 414.139 280.688 411.27C284.024 410.777 287.945 410.06 289.446 409.701C290.947 409.343 293.366 408.715 294.868 408.402C301.999 406.699 305.586 405.533 314.261 402.082C317.889 400.648 327.023 395.807 330.943 393.297C340.744 386.933 352.505 375.19 359.553 364.657C361.472 361.789 365.267 354.617 366.977 350.673C375.568 330.728 377.612 304.508 372.19 283.981C371.648 281.874 371.022 279.768 370.814 279.274C370.605 278.781 370.105 277.347 369.73 276.137C368.478 272.327 365.142 264.977 363.098 261.615C357.134 251.665 350.587 244.494 340.327 236.561C327.148 226.387 316.346 220.067 290.906 207.697C284.108 204.425 283.899 204.335 277.351 200.929C274.015 199.225 270.261 197.343 269.01 196.716C265.674 195.057 256.749 190.441 249.826 186.81C236.772 179.908 233.018 176.367 231.475 169.375C231.016 167.269 231.058 166.731 231.892 164.086C233.477 158.932 237.522 155.615 244.904 153.464C248.116 152.523 249.2 152.433 260.252 152.433C271.221 152.433 272.68 152.523 279.437 153.688C283.44 154.36 288.654 155.436 290.989 156.064C295.076 157.139 306.837 161.218 309.882 162.652C323.812 169.106 336.824 176.412 344.915 182.239C347 183.762 348.877 184.838 349.085 184.704C349.335 184.524 350.295 183.18 351.212 181.656C352.171 180.132 355.133 175.426 357.843 171.258C373.4 147.144 376.236 142.573 375.985 141.9C375.819 141.542 374.776 140.421 373.608 139.435C372.482 138.449 370.272 136.567 368.77 135.222C357.218 125.272 338.492 115.098 320.1 108.733C312.092 105.999 311.383 105.775 305.711 104.296C298.83 102.503 292.449 101.293 284.024 100.173C275.141 98.9625 249.45 98.604 239.357 99.5004ZM184.056 147.368C183.305 148.354 181.512 154.495 180.761 158.708C179.802 164.221 179.802 175.74 180.761 180.67C182.721 190.306 186.975 197.522 195.233 205.097C198.319 207.876 204.116 211.999 208.036 214.195C213.792 217.378 218.088 219.664 221.257 221.143C225.094 222.98 226.304 223.563 241.276 231.227C246.114 233.647 251.244 236.292 252.745 237.009C254.246 237.726 256.415 238.802 257.541 239.384C262.296 241.715 273.389 247.362 279.52 250.545C283.148 252.427 286.151 253.951 286.276 253.951C286.527 253.951 303.918 263.005 309.673 266.142C326.606 275.375 335.239 285.191 339.91 300.519C341.745 306.615 342.412 311.814 342.412 320.061C342.371 332.476 340.035 344.712 336.073 352.78C335.072 354.886 330.443 362.685 329.65 363.716C329.025 364.478 329.358 363.044 330.359 360.175C333.112 352.6 334.071 340.499 332.611 332.297C330.818 322.167 324.771 312.441 315.721 305.091C310.215 300.609 307.63 299.175 279.02 284.877C273.264 282.009 269.052 279.902 261.378 275.958C259.501 275.017 256.832 273.672 255.456 273C254.08 272.327 251.285 270.893 249.2 269.862C242.152 266.277 238.774 264.618 234.394 262.467C231.976 261.257 228.848 259.688 227.43 258.926C226.012 258.164 221.507 255.923 217.42 253.951C206.702 248.662 196.693 242.97 191.479 239.205C185.432 234.768 179.635 227.373 175.923 219.395C169.167 204.738 168.666 180.087 174.839 163.19C177.049 157.094 183.388 145.62 184.097 146.382C184.348 146.651 184.306 147.01 184.056 147.368Z" fill="url(#paint0_linear_507_2)"/>
<defs>
<linearGradient id="paint0_linear_507_2" x1="174.964" y1="118.146" x2="358.37" y2="373.336" gradientUnits="userSpaceOnUse">
<stop stop-color="#004022"/>
<stop offset="1" stop-color="#81C784"/>
</linearGradient>
</defs>
</svg>
